# xmcd
#
# Track frame offsets:
#	150
#	12335
#	22210
#	34195
#	47860
#	60438
#	71008
#	83415
#	97033
#	108078
#	117353
#	127983
#	139240
#	148728
#	159673
#	169825
#	180053
#	191415
#	203753
#	216530
#	231758
#	240553
#	255138
#	266973
#	277085
#	286288
#	296290
#	304383
#	314453
#	325275
#	336175
#	347545
#
# Disc length: 4783 seconds
#
# Revision: 0
# Processed by: cddbd v1.4PL0 Copyright (c) Steve Scherf et al.
# Submitted via: dBpowerAMP V4.0
#
DISCID=df12ad20
DTITLE=Ernest Tubb - Another Story - CD 2
DYEAR=1999
DGENRE=Country
TTITLE0=Loose Talk
TTITLE1=You Beat All I Ever Saw
TTITLE2=Apartment # 9
TTITLE3=I Never Had The One I Wanted
TTITLE4=Too Much Of Not Enough - Outtake
TTITLE5=Nothing Is Better Than You
TTITLE6=It Sure Helps A Lot
TTITLE7=Too Much Of Not Enough
TTITLE8=Take These Chains From My Heart
TTITLE9=I Can't Help It (If I'm Still In Love With You)
TTITLE10=Hey Good Lookin'
TTITLE11=I'm So Lonesome I Could Cry
TTITLE12=Window Shopping
TTITLE13=Someday You'll Call My Name
TTITLE14=I Could Never Be Ashamed Of You
TTITLE15=Mansion On The Hill
TTITLE16=Mind Your Own Business
TTITLE17=Your Cheatin' Heart
TTITLE18=Cold, Cold, Heart
TTITLE19=Heart Of A Clown (Texas Troubadours)
TTITLE20=(Won't You Ride In) My Little Red Wagon (Texas Troubadours)
TTITLE21=I Act Just Like This All The Time (Texas Troubadours)
TTITLE22=Sing Me Back Home (Texas Troubadours)
TTITLE23=Tuxedo Junction (Texas Troubadours)
TTITLE24=Nashville Shuffle (Texas Troubadours)
TTITLE25=Ridgetop Stomp (Texas Troubadours)
TTITLE26=Buddie's Boogie (Texas Troubadours)
TTITLE27=If My Heart Had Windows
TTITLE28=I'm Gonna Make Like A Snake
TTITLE29=Life Turned Her That Way
TTITLE30=Crying Time
TTITLE31=One More Memory
EXTD=
EXTT0=
EXTT1=
EXTT2=
EXTT3=
EXTT4=
EXTT5=
EXTT6=
EXTT7=
EXTT8=
EXTT9=
EXTT10=
EXTT11=
EXTT12=
EXTT13=
EXTT14=
EXTT15=
EXTT16=
EXTT17=
EXTT18=
EXTT19=
EXTT20=
EXTT21=
EXTT22=
EXTT23=
EXTT24=
EXTT25=
EXTT26=
EXTT27=
EXTT28=
EXTT29=
EXTT30=
EXTT31=
PLAYORDER=
